Coordinates
version=1
nRows=19
nColumns=33
inDegrees=yes

Units are S.I. units (second, meters, Newtons, ...)
Angles are in degrees.

endheader
time	ground_thorax_rot_x	ground_thorax_rot_y	ground_thorax_rot_z	ground_thorax_tx	ground_thorax_ty	ground_thorax_tz	clav_prot_r	clav_elev_r	scapula_abduction_r	scapula_elevation_r	scapula_upward_rot_r	scapula_winging_r	shoulder_elv_r	plane_of_elev_r	axial_rot_r	elbow_flexion_r	pro_sup_r	wrist_flex_r	wrist_dev_r	clav_prot_l	clav_elev_l	scapula_abduction_l	scapula_elevation_l	scapula_upward_rot_l	scapula_winging_l	shoulder_elv_l	plane_of_elev_l	axial_rot_l	elbow_flexion_l	pro_sup_l	wrist_flex_l	wrist_dev_l	
10.2500	32.095335	24.950820	32.739077	-103.095272	852.372067	-38.106850	12.317621	33.568610	25.857879	45.000000	-45.000000	1710.519091	433.712930	22.217103	-165.858518	2517.922781	159.235726	17.038707	13.650142	-5.702919	-45.000000	-39.948968	45.000000	-45.000000	4066.091480	-4601.326246	25.599926	27.510569	2871.117279	-320.809308	13.871762	-22.262606	
10.2600	32.033756	25.033040	32.870716	-102.650168	852.072794	-38.048691	12.257530	33.565900	25.869297	45.000000	-45.000000	1710.572692	433.668084	22.240756	-165.998335	2517.870960	158.406051	16.884174	13.751170	-5.661683	-45.000000	-40.016747	45.000000	-45.000000	4066.078984	-4601.347171	25.643289	27.704969	2871.192055	-320.446500	13.830794	-22.375028	
10.2700	31.933168	25.153978	33.036941	-102.169701	851.775448	-37.996470	12.158572	33.599531	25.811084	45.000000	-45.000000	1710.635216	433.642676	22.285216	-166.140928	2517.818566	157.598337	16.724685	13.861493	-5.670594	-45.000000	-40.182506	45.000000	-45.000000	4066.094762	-4601.386298	25.678361	27.927021	2871.249065	-320.104786	13.817247	-22.572781	
10.2800	31.867294	25.243388	33.186189	-101.615723	851.483949	-37.956657	12.135055	33.612045	25.824220	45.000000	-45.000000	1710.683049	433.605107	22.317901	-166.303458	2517.758615	156.850540	16.579350	13.963176	-5.667768	-45.000000	-40.251353	45.000000	-45.000000	4066.077040	-4601.406085	25.720467	28.158425	2871.318997	-319.787888	13.800951	-22.690207	
10.2900	31.813901	25.320964	33.335603	-100.980658	851.196044	-37.930461	12.140389	33.618381	25.875261	45.000000	-45.000000	1710.725100	433.560658	22.344226	-166.489291	2517.697007	156.163998	16.445596	14.056254	-5.660375	-45.000000	-40.281119	45.000000	-45.000000	4066.041637	-4601.418302	25.764671	28.403276	2871.393033	-319.499437	13.788077	-22.764263	
10.3000	31.759984	25.396984	33.498332	-100.252535	850.909639	-37.919814	12.171196	33.618844	25.945480	45.000000	-45.000000	1710.766868	433.514775	22.369431	-166.697325	2517.636716	155.552765	16.319753	14.146702	-5.658435	-45.000000	-40.290784	45.000000	-45.000000	4065.997986	-4601.422479	25.813514	28.664265	2871.460637	-319.245408	13.791005	-22.815858	
10.3100	31.713889	25.462926	33.662521	-99.428355	850.620738	-37.924960	12.211074	33.618035	26.044336	45.000000	-45.000000	1710.809185	433.461842	22.391723	-166.933481	2517.578128	155.011927	16.206871	14.226203	-5.649193	-45.000000	-40.276168	45.000000	-45.000000	4065.937641	-4601.423767	25.862992	28.935205	2871.529448	-319.022448	13.797179	-22.828973	
10.3200	31.655348	25.537251	33.848246	-98.510006	850.324716	-37.945122	12.250129	33.613179	26.137539	45.000000	-45.000000	1710.859330	433.412411	22.419668	-167.189475	2517.526387	154.541167	16.095976	14.308294	-5.648345	-45.000000	-40.269332	45.000000	-45.000000	4065.878395	-4601.423278	25.917447	29.217732	2871.584389	-318.829350	13.824179	-22.839424	
10.3300	31.605195	25.602042	34.029663	-97.500293	850.017224	-37.979009	12.289468	33.617251	26.249050	45.000000	-45.000000	1710.914418	433.356786	22.447400	-167.469790	2517.477945	154.129333	15.997686	14.377046	-5.645561	-45.000000	-40.248692	45.000000	-45.000000	4065.799519	-4601.425984	25.968364	29.503401	2871.641020	-318.661541	13.850987	-22.822833	
10.3400	31.549247	25.674090	34.224151	-96.402898	849.694441	-38.024789	12.332639	33.620266	26.344102	45.000000	-45.000000	1710.975365	433.309912	22.488874	-167.763117	2517.432275	153.772883	15.897328	14.454314	-5.662199	-45.000000	-40.234321	45.000000	-45.000000	4065.720282	-4601.432719	26.024285	29.798414	2871.686910	-318.514663	13.898444	-22.812630	
10.3500	31.501297	25.741780	34.414614	-95.221957	849.352994	-38.080115	12.370238	33.633628	26.438368	45.000000	-45.000000	1711.043542	433.264700	22.536319	-168.077043	2517.387609	153.456940	15.803318	14.522358	-5.682002	-45.000000	-40.212250	45.000000	-45.000000	4065.622144	-4601.444029	26.074058	30.093452	2871.733415	-318.381545	13.944172	-22.788453	
10.3600	31.445331	25.818347	34.626766	-93.962211	848.989953	-38.142260	12.410828	33.634057	26.525950	45.000000	-45.000000	1711.115784	433.224314	22.589705	-168.401730	2517.351630	153.181664	15.699815	14.600605	-5.710180	-45.000000	-40.189105	45.000000	-45.000000	4065.528752	-4601.451426	26.130707	30.391730	2871.767664	-318.254881	14.007746	-22.756699	
10.3700	31.395872	25.890503	34.839356	-92.628679	848.602651	-38.208357	12.448253	33.647042	26.626035	45.000000	-45.000000	1711.191805	433.178936	22.638393	-168.737964	2517.317551	152.941381	15.601464	14.665203	-5.735367	-45.000000	-40.164798	45.000000	-45.000000	4065.423483	-4601.462326	26.178766	30.691226	2871.803576	-318.136695	14.064896	-22.711249	
10.3800	31.345160	25.966994	35.063959	-91.226412	848.188613	-38.275711	12.485627	33.651273	26.724323	45.000000	-45.000000	1711.264431	433.135212	22.693746	-169.075809	2517.285864	152.738115	15.494279	14.741105	-5.768255	-45.000000	-40.145101	45.000000	-45.000000	4065.328195	-4601.477686	26.235685	31.001114	2871.832550	-318.021051	14.136125	-22.664930	
10.3900	31.301905	26.041108	35.285555	-89.760160	847.745644	-38.342117	12.513609	33.665175	26.823585	45.000000	-45.000000	1711.340134	433.091392	22.748933	-169.420169	2517.252167	152.565886	15.388561	14.808258	-5.795789	-45.000000	-40.127049	45.000000	-45.000000	4065.222404	-4601.498442	26.286828	31.316240	2871.861552	-317.906200	14.200435	-22.613898	
10.4000	31.256814	26.119596	35.517779	-88.233740	847.271950	-38.406084	12.532658	33.674083	26.921903	45.000000	-45.000000	1711.413129	433.048650	22.808684	-169.765661	2517.223512	152.424877	15.273961	14.883928	-5.827349	-45.000000	-40.116315	45.000000	-45.000000	4065.125670	-4601.523985	26.346754	31.644089	2871.882273	-317.785015	14.274929	-22.561525	
10.4100	31.219865	26.194349	35.745446	-86.650094	846.766532	-38.466885	12.541935	33.694106	27.024701	45.000000	-45.000000	1711.489171	433.007030	22.866098	-170.110975	2517.193144	152.310901	15.161682	14.949357	-5.851565	-45.000000	-40.105680	45.000000	-45.000000	4065.017980	-4601.555477	26.402183	31.980024	2871.902422	-317.659662	14.340124	-22.504034	
10.4200	31.180264	26.272939	35.979557	-85.010530	846.229203	-38.524445	12.541164	33.711708	27.123158	45.000000	-45.000000	1711.565487	432.966806	22.928307	-170.451371	2517.168184	152.224360	15.042447	15.020934	-5.877972	-45.000000	-40.100897	45.000000	-45.000000	4064.913994	-4601.591415	26.465807	32.325150	2871.913604	-317.525876	14.411754	-22.442879	
10.4300	31.135770	26.355609	36.222681	-83.315496	845.660814	-38.579055	12.536143	33.732374	27.220415	45.000000	-45.000000	1711.648991	432.928198	22.986043	-170.788061	2517.148428	152.164085	14.920915	15.086153	-5.898404	-45.000000	-40.095238	45.000000	-45.000000	4064.800685	-4601.622408	26.525022	32.670306	2871.917142	-317.386262	14.478692	-22.369204	
